<?xml version="1.0" encoding="UTF-8"?>
<svg width="16px" height="13px" viewBox="0 0 16 13" version="1.1" xmlns="http://www.w3.org/2000/svg" xmlns:xlink="http://www.w3.org/1999/xlink">
    <!-- Generator: Sketch 52.5 (67469) - http://www.bohemiancoding.com/sketch -->
    <title>camera</title>
    <desc>Created with Sketch.</desc>
    <g id="flashdance" stroke="none" stroke-width="1" fill="none" fill-rule="evenodd">
        <g id="galeria" transform="translate(-230.000000, -602.000000)" fill="#000000">
            <g id="camera" transform="translate(230.000000, 602.000000)">
                <path d="M12.8,1.6 L12.8,3.2 L12,3.2 L10.4,0 L5.6,0 L4,3.2 L0,3.2 L0,12.8 L16,12.8 L16,3.2 L14.4,3.2 L14.4,1.6 L12.8,1.6 Z M8,10.4 C6.23520832,10.4 4.8,8.96479168 4.8,7.2 C4.8,5.43520832 6.23520832,4 8,4 C9.76479168,4 11.2,5.43520832 11.2,7.2 C11.2,8.96479168 9.76479168,10.4 8,10.4 Z" id="Shape" fill-rule="nonzero"></path>
                <path d="M8,5.6 C7.11791669,5.6 6.4,6.31791669 6.4,7.2 C6.4,8.08208331 7.11791669,8.8 8,8.8 C8.88208331,8.8 9.6,8.08208331 9.6,7.2 C9.6,6.31791669 8.88208331,5.6 8,5.6 Z" id="Path"></path>
            </g>
        </g>
    </g>
</svg>