<?xml version="1.0" encoding="UTF-8"?>
<svg width="124px" height="44px" viewBox="0 0 124 44" version="1.1" xmlns="http://www.w3.org/2000/svg" xmlns:xlink="http://www.w3.org/1999/xlink">
    <!-- Generator: Sketch 52.5 (67469) - http://www.bohemiancoding.com/sketch -->
    <title>Group 9</title>
    <desc>Created with Sketch.</desc>
    <g id="flashdance" stroke="none" stroke-width="1" fill="none" fill-rule="evenodd">
        <g id="opiniones" transform="translate(-348.000000, -562.000000)" fill-rule="nonzero">
            <g id="crítica-prensa" transform="translate(230.000000, 524.000000)">
                <g id="Group-9" transform="translate(120.000000, 38.000000)">
                    <path d="M20,24.5 L0,24.5" id="Line-2" stroke="#29194E" stroke-width="3" stroke-linecap="square"></path>
                    <path d="M120,24.5 L100,24.5" id="Line-2-Copy" stroke="#29194E" stroke-width="3" stroke-linecap="square"></path>
                    <path d="M69.4211704,5 L69.4211704,9.35216932 L69.4212776,9.35216932 L46.0434987,16.541255 L40,16.541255 L40,30.495782 L46.0438203,30.495782 L49.3697654,31.5186421 L49.3697654,41.2679346 L63.3067017,41.2679346 L63.3067017,35.8046371 L69.4211704,37.684975 L69.4211704,42.037037 L80,42.037037 L80,5 L69.4211704,5 Z M45.3629578,27.2782291 L43.2161666,27.2782291 L43.2161666,19.7588079 L45.3629578,19.7588079 L45.3629578,27.2782291 Z M60.0905351,38.0503817 L52.585932,38.0503817 L52.585932,32.5077178 L60.0905351,34.8155613 L60.0905351,38.0503817 Z M69.4212776,34.3187711 L48.5791244,27.9092985 L48.5791244,19.1276313 L69.4212776,12.7182659 L69.4212776,34.3187711 Z M76.7839406,38.8193769 L72.6374442,38.8193769 L72.6374442,38.6739435 L72.6374442,8.36309355 L72.6374442,8.21755291 L76.7839406,8.21755291 L76.7839406,38.8193769 Z" id="Shape" fill="#29194E" transform="translate(60.000000, 23.518519) rotate(-15.000000) translate(-60.000000, -23.518519) "></path>
                </g>
            </g>
        </g>
    </g>
</svg>