<?xml version="1.0" encoding="UTF-8"?>
<svg width="124px" height="40px" viewBox="0 0 124 40" version="1.1" xmlns="http://www.w3.org/2000/svg" xmlns:xlink="http://www.w3.org/1999/xlink">
    <!-- Generator: Sketch 52.5 (67469) - http://www.bohemiancoding.com/sketch -->
    <title>Group 9</title>
    <desc>Created with Sketch.</desc>
    <g id="flashdance" stroke="none" stroke-width="1" fill="none" fill-rule="evenodd">
        <g id="venta-de-entradas" transform="translate(-348.000000, -690.000000)">
            <g id="venta-entradas-VALENCIA-Copy" transform="translate(230.000000, 648.000000)">
                <g id="Group-9" transform="translate(120.000000, 42.000000)">
                    <g id="tickets" transform="translate(40.000000, 0.000000)" fill="#29194E">
                        <circle id="Oval" cx="28.2710156" cy="32.1971094" r="1.56054688"></circle>
                        <circle id="Oval" cx="24.6813281" cy="12.0652344" r="1.56054688"></circle>
                        <path d="M38.4149219,24.3942188 L39.9754688,24.3942188 L39.9754688,15.0307031 L35.9960156,15.0307031 C34.275,15.0307031 32.8748438,13.6305469 32.8748438,11.9095313 C32.8748438,10.7417188 33.5197656,9.68046875 34.5579688,9.13976563 L35.8871094,8.4475 L31.9132031,0 L0.06109375,15.02375 L0.064375,15.0307031 L0.02453125,15.0307031 L0.02453125,24.3942188 L1.58515625,24.3942188 C3.30617187,24.3942188 4.70632812,25.794375 4.70632812,27.5153906 C4.70632812,29.2364063 3.30617187,30.6365625 1.58515625,30.6365625 L0.02453125,30.6365625 L0.02453125,40 L39.9754688,40 L39.9753906,30.6364844 L38.4148438,30.6364844 C36.6938281,30.6364844 35.2936719,29.2363281 35.2936719,27.5153125 C35.2936719,25.794375 36.6938281,24.3942188 38.4149219,24.3942188 Z M21.2611719,8.4753125 C21.6400781,9.22773438 22.550625,9.54664063 23.3176562,9.18585937 C24.085625,8.82460938 24.4205469,7.91796875 24.0803125,7.145625 L30.4189062,4.15585938 L31.8646094,7.22890625 C30.5366406,8.39773438 29.7535937,10.08875 29.7535937,11.9096094 C29.7535937,13.0461719 30.0604687,14.1117969 30.5934375,15.0307813 L7.3628125,15.0307813 L21.2611719,8.4753125 Z M36.8542187,33.5601563 L36.8542187,36.8788281 L29.8316406,36.8788281 C29.8316406,36.0169531 29.1329687,35.3182812 28.2710937,35.3182812 C27.4092187,35.3182812 26.7105469,36.0169531 26.7105469,36.8788281 L3.14570313,36.8788281 L3.14570313,33.5601563 C5.83507813,32.8654688 7.82742188,30.4186719 7.82742188,27.5153125 C7.82742188,24.6119531 5.835,22.1650781 3.14570313,21.4704688 L3.14570313,18.1517969 L26.7104687,18.1517969 C26.7104687,19.0136719 27.4091406,19.7123438 28.2710156,19.7123438 C29.1328906,19.7123438 29.8315625,19.0136719 29.8315625,18.1517969 L36.8542187,18.1517969 L36.8541406,21.4704688 C34.1647656,22.1651563 32.1724219,24.6119531 32.1724219,27.5153125 C32.1725,30.41875 34.1648437,32.8654688 36.8542187,33.5601563 Z" id="Shape" fill-rule="nonzero"></path>
                        <circle id="Oval" cx="28.2710156" cy="22.8335937" r="1.56054688"></circle>
                        <circle id="Oval" cx="28.2710156" cy="27.5153906" r="1.56054688"></circle>
                    </g>
                    <path d="M20,20.5 L0,20.5" id="Line-2" stroke="#29194E" stroke-width="3" stroke-linecap="square" fill-rule="nonzero"></path>
                    <path d="M120,20.5 L100,20.5" id="Line-2-Copy" stroke="#29194E" stroke-width="3" stroke-linecap="square" fill-rule="nonzero"></path>
                </g>
            </g>
        </g>
    </g>
</svg>