<?xml version="1.0" encoding="UTF-8"?>
<svg width="16px" height="16px" viewBox="0 0 16 16" version="1.1" xmlns="http://www.w3.org/2000/svg" xmlns:xlink="http://www.w3.org/1999/xlink">
    <!-- Generator: Sketch 52.5 (67469) - http://www.bohemiancoding.com/sketch -->
    <title>Shape</title>
    <desc>Created with Sketch.</desc>
    <g id="flashdance" stroke="none" stroke-width="1" fill="none" fill-rule="evenodd">
        <g id="tienda---checkout" transform="translate(-254.000000, -547.000000)" fill="#E523BB" fill-rule="nonzero">
            <g id="Group" transform="translate(230.000000, 519.000000)">
                <g id="round-info-button" transform="translate(24.000000, 28.000000)">
                    <path d="M7.2,12 L8.8,12 L8.8,7.2 L7.2,7.2 L7.2,12 Z M8,0 C3.6,0 0,3.6 0,8 C0,12.4 3.6,16 8,16 C12.4,16 16,12.4 16,8 C16,3.6 12.4,0 8,0 Z M8,14.4 C4.48,14.4 1.6,11.52 1.6,8 C1.6,4.48 4.48,1.6 8,1.6 C11.52,1.6 14.4,4.48 14.4,8 C14.4,11.52 11.52,14.4 8,14.4 Z M7.2,5.6 L8.8,5.6 L8.8,4 L7.2,4 L7.2,5.6 Z" id="Shape"></path>
                </g>
            </g>
        </g>
    </g>
</svg>