<?xml version="1.0" encoding="UTF-8"?>
<svg width="26px" height="30px" viewBox="0 0 26 30" version="1.1" xmlns="http://www.w3.org/2000/svg" xmlns:xlink="http://www.w3.org/1999/xlink">
    <!-- Generator: Sketch 52.5 (67469) - http://www.bohemiancoding.com/sketch -->
    <title>Path</title>
    <desc>Created with Sketch.</desc>
    <g id="flashdance" stroke="none" stroke-width="1" fill="none" fill-rule="evenodd">
        <g id="blog---listado" transform="translate(-787.000000, -3009.000000)" fill="#E523BB">
            <g id="Group-10" transform="translate(768.000000, 2992.000000)">
                <g id="Group-4">
                    <g id="rotate-option" transform="translate(19.200000, 17.600000)">
                        <path d="M25.6,12.9169164 C25.6,19.1992965 21.1320983,24.4477264 15.234581,25.5983385 L15.234581,29.0796117 L5.85705524,23.6534758 L15.234581,18.2273399 L15.234581,21.4143808 C18.8877295,20.3467886 21.5672338,16.9427023 21.5672338,12.9167808 C21.5672338,8.03841332 17.6342113,4.06946624 12.8,4.06946624 C7.9657887,4.06946624 4.03276623,8.03841332 4.03276623,12.9167808 C4.03276623,14.2307196 4.31075824,15.4943309 4.85921445,16.672752 L1.20902331,18.4028754 C0.406771687,16.6791277 0,14.8334276 0,12.9169164 C0.000134425541,5.79457049 5.74225583,0 12.8001344,0 C19.858013,0 25.6,5.79457049 25.6,12.9169164 Z" id="Path"></path>
                    </g>
                </g>
            </g>
        </g>
    </g>
</svg>