<?xml version="1.0" encoding="UTF-8"?>
<svg width="124px" height="44px" viewBox="0 0 124 44" version="1.1" xmlns="http://www.w3.org/2000/svg" xmlns:xlink="http://www.w3.org/1999/xlink">
    <!-- Generator: Sketch 52.5 (67469) - http://www.bohemiancoding.com/sketch -->
    <title>Group 9</title>
    <desc>Created with Sketch.</desc>
    <g id="flashdance" stroke="none" stroke-width="1" fill="none" fill-rule="evenodd">
        <g id="opiniones" transform="translate(-738.000000, -948.000000)">
            <g id="Nota-de-prensa" transform="translate(620.000000, 908.000000)">
                <g id="Group-9" transform="translate(120.000000, 40.000000)">
                    <g id="newspaper-copy-2" transform="translate(40.000000, 0.000000)" fill="#29194E">
                        <path d="M34.4208038,5.2421875 L34.4208038,0 L0,0 L0,38.7578125 L5.29550827,38.7578125 L5.29550827,44 L39.7163121,44 L39.7163121,5.2421875 L34.4208038,5.2421875 Z M2.64775414,36.1796875 L2.64775414,2.578125 L31.7730496,2.578125 L31.7730496,36.1796875 L2.64775414,36.1796875 Z M37.0685579,41.421875 L7.94326241,41.421875 L7.94326241,38.7578125 L34.4208038,38.7578125 L34.4208038,7.8203125 L37.0685579,7.8203125 L37.0685579,41.421875 Z" id="Shape" fill-rule="nonzero"></path>
                        <path d="M5.67375887,5.61702128 L5.67375887,13.106383 L29.3144208,13.106383 L29.3144208,5.61702128 L5.67375887,5.61702128 Z M26.6876806,10.6099291 L8.30049908,10.6099291 L8.30049908,8.11347518 L26.6876806,8.11347518 L26.6876806,10.6099291 Z" id="Shape" fill-rule="nonzero"></path>
                        <path d="M21.749409,15.9148936 L21.749409,23.4042553 L29.3144208,23.4042553 L29.3144208,15.9148936 L21.749409,15.9148936 Z M26.7927502,20.9078014 L24.2710796,20.9078014 L24.2710796,18.4113475 L26.7927502,18.4113475 L26.7927502,20.9078014 Z" id="Shape" fill-rule="nonzero"></path>
                        <rect id="Rectangle" x="6.61938534" y="15.9148936" width="10.4018913" height="2.80851064"></rect>
                        <rect id="Rectangle" x="6.61938534" y="20.5957447" width="10.4018913" height="2.80851064"></rect>
                        <rect id="Rectangle" x="6.61938534" y="26.212766" width="20.8037825" height="2.80851064"></rect>
                        <rect id="Rectangle" x="6.61938534" y="30.893617" width="20.8037825" height="2.80851064"></rect>
                    </g>
                    <path d="M20,22.5 L5.32907052e-15,22.5" id="Line-2" stroke="#29194E" stroke-width="3" stroke-linecap="square" fill-rule="nonzero"></path>
                    <path d="M120,22.5 L100,22.5" id="Line-2-Copy" stroke="#29194E" stroke-width="3" stroke-linecap="square" fill-rule="nonzero"></path>
                </g>
            </g>
        </g>
    </g>
</svg>