<?xml version="1.0" encoding="UTF-8"?>
<svg width="33px" height="40px" viewBox="0 0 33 40" version="1.1" xmlns="http://www.w3.org/2000/svg" xmlns:xlink="http://www.w3.org/1999/xlink">
    <!-- Generator: Sketch 52.5 (67469) - http://www.bohemiancoding.com/sketch -->
    <title>shopping-bag</title>
    <desc>Created with Sketch.</desc>
    <g id="flashdance" stroke="none" stroke-width="1" fill="none" fill-rule="evenodd">
        <g id="tienda---listado" transform="translate(-1338.000000, -304.000000)" fill="#000000" fill-rule="nonzero">
            <g id="cesta" transform="translate(1326.000000, 304.000000)">
                <g id="shopping-bag" transform="translate(12.000000, 0.000000)">
                    <path d="M32.0736196,34.5766871 L29.7832311,8.78527607 C29.7341513,8.21267894 29.2515337,7.7791411 28.6871166,7.7791411 L23.9754601,7.7791411 C23.9100204,3.47648262 20.392638,0 16.0736196,0 C11.7546012,0 8.23721881,3.47648262 8.17177914,7.7791411 L3.4601227,7.7791411 C2.88752556,7.7791411 2.41308793,8.21267894 2.36400818,8.78527607 L0.0736196319,34.5766871 C0.0736196319,34.609407 0.0654396728,34.6421268 0.0654396728,34.6748466 C0.0654396728,37.6114519 2.75664622,40 6.06952965,40 L26.0777096,40 C29.390593,40 32.0817996,37.6114519 32.0817996,34.6748466 C32.0817996,34.6421268 32.0817996,34.609407 32.0736196,34.5766871 Z M16.0736196,2.20858896 C19.1738241,2.20858896 21.7014315,4.69529652 21.7668712,7.7791411 L10.3803681,7.7791411 C10.4458078,4.69529652 12.9734151,2.20858896 16.0736196,2.20858896 Z M26.0777096,37.791411 L6.06952965,37.791411 C3.99182004,37.791411 2.30674847,36.4171779 2.27402863,34.7239264 L4.46625767,9.99591002 L8.16359918,9.99591002 L8.16359918,13.3496933 C8.16359918,13.9631902 8.65439673,14.4539877 9.26789366,14.4539877 C9.88139059,14.4539877 10.3721881,13.9631902 10.3721881,13.3496933 L10.3721881,9.99591002 L21.7668712,9.99591002 L21.7668712,13.3496933 C21.7668712,13.9631902 22.2576687,14.4539877 22.8711656,14.4539877 C23.4846626,14.4539877 23.9754601,13.9631902 23.9754601,13.3496933 L23.9754601,9.99591002 L27.6728016,9.99591002 L29.8732106,34.7239264 C29.8404908,36.4171779 28.1472393,37.791411 26.0777096,37.791411 Z" id="Shape"></path>
                </g>
            </g>
        </g>
    </g>
</svg>