<?xml version="1.0" encoding="UTF-8"?>
<svg width="124px" height="40px" viewBox="0 0 124 40" version="1.1" xmlns="http://www.w3.org/2000/svg" xmlns:xlink="http://www.w3.org/1999/xlink">
    <!-- Generator: Sketch 52.5 (67469) - http://www.bohemiancoding.com/sketch -->
    <title>Group</title>
    <desc>Created with Sketch.</desc>
    <g id="flashdance" stroke="none" stroke-width="1" fill="none" fill-rule="evenodd">
        <g id="opiniones" transform="translate(-738.000000, -564.000000)" fill-rule="nonzero">
            <g id="opinión-usuario" transform="translate(620.000000, 524.000000)">
                <g id="Group" transform="translate(120.000000, 40.000000)">
                    <g id="emoticon-with-happy-face-copy" transform="translate(40.000000, 0.000000)" fill="#29194E">
                        <path d="M27,18 C28.6,18 30,16.6 30,15 C30,13.4 28.6,12 27,12 C25.4,12 24,13.4 24,15 C24,16.6 25.4,18 27,18 Z M13,18 C14.6,18 16,16.6 16,15 C16,13.4 14.6,12 13,12 C11.4,12 10,13.4 10,15 C10,16.6 11.4,18 13,18 Z M20,32 C25.2,32 29.6,28.6 31.4,24 L8.6,24 C10.4,28.6 14.8,32 20,32 Z M20,0 C9,0 0,9 0,20 C0,31 9,40 20,40 C31,40 40,31 40,20 C40,9 31,0 20,0 Z M20,36 C11.2,36 4,28.8 4,20 C4,11.2 11.2,4 20,4 C28.8,4 36,11.2 36,20 C36,28.8 28.8,36 20,36 Z" id="Shape"></path>
                    </g>
                    <g id="Group-7" transform="translate(0.000000, 20.000000)" stroke="#29194E" stroke-linecap="square" stroke-width="3">
                        <path d="M20,0.5 L0,0.5" id="Line-2"></path>
                        <path d="M120,0.5 L100,0.5" id="Line-2-Copy"></path>
                    </g>
                </g>
            </g>
        </g>
    </g>
</svg>